<svg width="1200" height="300" xmlns="http://www.w3.org/2000/svg">
  <defs>
    <linearGradient id="bg" x1="0%" y1="0%" x2="100%" y2="100%">
      <stop offset="0%" style="stop-color:#0d1117;stop-opacity:1" />
      <stop offset="50%" style="stop-color:#161b22;stop-opacity:1" />
      <stop offset="100%" style="stop-color:#0d1117;stop-opacity:1" />
    </linearGradient>
    <linearGradient id="accent" x1="0%" y1="0%" x2="100%" y2="0%">
      <stop offset="0%" style="stop-color:#58a6ff;stop-opacity:1" />
      <stop offset="100%" style="stop-color:#1f6feb;stop-opacity:1" />
    </linearGradient>
    <linearGradient id="accent2" x1="0%" y1="0%" x2="100%" y2="0%">
      <stop offset="0%" style="stop-color:#1f6feb;stop-opacity:0.3" />
      <stop offset="100%" style="stop-color:#58a6ff;stop-opacity:0.1" />
    </linearGradient>
  </defs>

  <!-- Background -->
  <rect width="1200" height="300" fill="url(#bg)" rx="0"/>

  <!-- Decorative elements -->
  <rect x="0" y="290" width="1200" height="3" fill="url(#accent)" rx="1"/>

  <!-- Grid pattern -->
  <g opacity="0.03">
    <line x1="0" y1="0" x2="0" y2="300" stroke="#58a6ff" stroke-width="1"/>
    <line x1="60" y1="0" x2="60" y2="300" stroke="#58a6ff" stroke-width="1"/>
    <line x1="120" y1="0" x2="120" y2="300" stroke="#58a6ff" stroke-width="1"/>
    <line x1="180" y1="0" x2="180" y2="300" stroke="#58a6ff" stroke-width="1"/>
    <line x1="240" y1="0" x2="240" y2="300" stroke="#58a6ff" stroke-width="1"/>
    <line x1="300" y1="0" x2="300" y2="300" stroke="#58a6ff" stroke-width="1"/>
    <line x1="360" y1="0" x2="360" y2="300" stroke="#58a6ff" stroke-width="1"/>
    <line x1="420" y1="0" x2="420" y2="300" stroke="#58a6ff" stroke-width="1"/>
    <line x1="480" y1="0" x2="480" y2="300" stroke="#58a6ff" stroke-width="1"/>
    <line x1="540" y1="0" x2="540" y2="300" stroke="#58a6ff" stroke-width="1"/>
    <line x1="600" y1="0" x2="600" y2="300" stroke="#58a6ff" stroke-width="1"/>
    <line x1="660" y1="0" x2="660" y2="300" stroke="#58a6ff" stroke-width="1"/>
    <line x1="720" y1="0" x2="720" y2="300" stroke="#58a6ff" stroke-width="1"/>
    <line x1="780" y1="0" x2="780" y2="300" stroke="#58a6ff" stroke-width="1"/>
    <line x1="840" y1="0" x2="840" y2="300" stroke="#58a6ff" stroke-width="1"/>
    <line x1="900" y1="0" x2="900" y2="300" stroke="#58a6ff" stroke-width="1"/>
    <line x1="960" y1="0" x2="960" y2="300" stroke="#58a6ff" stroke-width="1"/>
    <line x1="1020" y1="0" x2="1020" y2="300" stroke="#58a6ff" stroke-width="1"/>
    <line x1="1080" y1="0" x2="1080" y2="300" stroke="#58a6ff" stroke-width="1"/>
    <line x1="1140" y1="0" x2="1140" y2="300" stroke="#58a6ff" stroke-width="1"/>
    <line x1="1200" y1="0" x2="1200" y2="300" stroke="#58a6ff" stroke-width="1"/>
    <line x1="0" y1="60" x2="1200" y2="60" stroke="#58a6ff" stroke-width="1"/>
    <line x1="0" y1="120" x2="1200" y2="120" stroke="#58a6ff" stroke-width="1"/>
    <line x1="0" y1="180" x2="1200" y2="180" stroke="#58a6ff" stroke-width="1"/>
    <line x1="0" y1="240" x2="1200" y2="240" stroke="#58a6ff" stroke-width="1"/>
  </g>

  <!-- Terminal icon -->
  <g transform="translate(80, 100)">
    <rect x="0" y="0" width="90" height="65" rx="8" fill="none" stroke="#58a6ff" stroke-width="2" opacity="0.6"/>
    <text x="12" y="28" font-family="monospace" font-size="16" fill="#58a6ff" opacity="0.8">$_</text>
    <rect x="12" y="40" width="30" height="3" rx="1" fill="#58a6ff" opacity="0.3"/>
    <rect x="12" y="48" width="50" height="3" rx="1" fill="#58a6ff" opacity="0.2"/>
  </g>

  <!-- Docker icon hint -->
  <g transform="translate(1030, 105)" opacity="0.15">
    <rect x="0" y="20" width="18" height="14" rx="2" fill="#58a6ff"/>
    <rect x="22" y="20" width="18" height="14" rx="2" fill="#58a6ff"/>
    <rect x="44" y="20" width="18" height="14" rx="2" fill="#58a6ff"/>
    <rect x="0" y="0" width="18" height="14" rx="2" fill="#58a6ff"/>
    <rect x="22" y="0" width="18" height="14" rx="2" fill="#58a6ff"/>
    <rect x="44" y="0" width="18" height="14" rx="2" fill="#58a6ff"/>
    <rect x="66" y="20" width="18" height="14" rx="2" fill="#58a6ff"/>
  </g>

  <!-- Main text -->
  <text x="600" y="120" font-family="Segoe UI, Arial, sans-serif" font-size="42" font-weight="700" fill="#e6edf3" text-anchor="middle" letter-spacing="1">
    Cassio Félix
  </text>

  <!-- Subtitle -->
  <text x="600" y="165" font-family="Segoe UI, Arial, sans-serif" font-size="20" fill="#8b949e" text-anchor="middle" letter-spacing="2">
    INFRASTRUCTURE · AUTOMATION · SHINY DEVELOPMENT
  </text>

  <!-- Tagline -->
  <text x="600" y="210" font-family="Segoe UI, Arial, sans-serif" font-size="14" fill="#58a6ff" text-anchor="middle" letter-spacing="1" opacity="0.8">
    R  ·  Shiny  ·  Docker  ·  N8N  ·  Claude Code  ·  PostgreSQL
  </text>

</svg>
